<svg xmlns="http://www.w3.org/2000/svg" width="400" height="72" viewBox="0 0 400 72"><path fill="#dd3a0a" d="M0 0h400v72H0z"/><path fill="#fff" d="M28.364 42.849c-.97 0-2.424-.304-3.333-.848v13.09H16V16.909h10.061c8.424 0 15.697 2.909 15.697 12.546-.001 7.333-6.061 13.394-13.394 13.394zm-2-18.364h-1.333v10.242c.606.243 1.818.727 2.424.727 3.818 0 5.273-2.545 5.273-6.061-.001-4.12-2.849-4.908-6.364-4.908zM59.092 56c-11.091 0-14.788-11.576-14.788-20s3.697-20 14.788-20S73.88 27.575 73.88 36s-3.697 20-14.788 20zm0-32.242c-5.394 0-5.757 7.031-5.757 12.242 0 5.273.364 12.243 5.757 12.243S64.85 41.151 64.85 36c0-5.212-.364-12.242-5.758-12.242zM88.244 56c-3.515 0-7.758-2.061-10.424-4.303l4-6.303c1.576 1.151 4.485 2.969 6.485 2.969 2.303 0 3.939-1.454 3.939-3.818 0-4.667-15.152-6.667-15.152-17.697C77.093 20 82.486 16 89.032 16c4.243 0 8.97 2.424 11.515 5.757l-5.03 4.485c-1.455-1.637-4-2.849-6.182-2.849-1.757 0-3.394 1.394-3.394 3.212 0 5.818 15.212 6.001 15.212 18 0 7.212-6.182 11.395-12.909 11.395zm30.485-31.151V55.09h-8.969l.061-30.242h-7.151v-7.94h23.273v7.94h-7.214zM143.337 56c-11.454 0-16.061-9.94-16.061-20 0-9.514 5.455-20 16.182-20 3.151 0 7.818.848 10.424 2.909l-3.333 6.061c-1.939-.97-4.97-1.395-7.091-1.395-5.212 0-7.152 8.607-7.152 12.667 0 4.727 1.03 12.121 7.273 12.121 2.303 0 5.212-.909 7.152-2.181l3.939 6C151.761 54.605 147.034 56 143.337 56zm24.667 0c-3.515 0-7.758-2.061-10.424-4.303l4-6.303c1.576 1.151 4.485 2.969 6.485 2.969 2.303 0 3.939-1.454 3.939-3.818 0-4.667-15.152-6.667-15.152-17.697C156.852 20 162.246 16 168.792 16c4.242 0 8.969 2.424 11.515 5.757l-5.03 4.485c-1.455-1.637-4-2.849-6.182-2.849-1.758 0-3.394 1.394-3.394 3.212 0 5.818 15.212 6.001 15.212 18 0 7.212-6.182 11.395-12.909 11.395zm26.303 0c-3.515 0-7.758-2.061-10.424-4.303l4-6.303c1.576 1.151 4.485 2.969 6.485 2.969 2.303 0 3.939-1.454 3.939-3.818 0-4.667-15.152-6.667-15.152-17.697C183.156 20 188.55 16 195.095 16c4.243 0 8.97 2.424 11.515 5.757l-5.03 4.485c-1.455-1.637-4-2.849-6.182-2.849-1.757 0-3.394 1.394-3.394 3.212 0 5.818 15.212 6.001 15.212 18C207.217 51.817 201.034 56 194.307 56zm16.122-16.303c0-2.909 2.667-5.091 5.515-5.091 2.666 0 5.212 2.001 5.212 4.788 0 2.909-2.727 5.151-5.515 5.151-2.666 0-5.212-2-5.212-4.848zm34.545 15.393l-1.939-7.879h-7.636l-1.939 7.879h-9.394l10.667-38.182h8.909l10.727 38.182h-9.395zm-5.757-26.605l-2.848 11.636h5.697l-2.849-11.636zM267.157 56c-3.515 0-7.758-2.061-10.424-4.303l4-6.303c1.576 1.151 4.485 2.969 6.485 2.969 2.303 0 3.939-1.454 3.939-3.818 0-4.667-15.152-6.667-15.152-17.697C256.006 20 261.4 16 267.945 16c4.243 0 8.97 2.424 11.515 5.757l-5.03 4.485c-1.455-1.637-4-2.849-6.182-2.849-1.757 0-3.394 1.394-3.394 3.212 0 5.818 15.212 6.001 15.212 18C280.067 51.817 273.885 56 267.157 56zm26.303 0c-3.515 0-7.758-2.061-10.424-4.303l4-6.303c1.576 1.151 4.485 2.969 6.485 2.969 2.303 0 3.939-1.454 3.939-3.818 0-4.667-15.152-6.667-15.152-17.697C282.309 20 287.703 16 294.248 16c4.243 0 8.97 2.424 11.515 5.757l-5.03 4.485c-1.455-1.637-4-2.849-6.182-2.849-1.757 0-3.394 1.394-3.394 3.212 0 5.818 15.212 6.001 15.212 18C306.37 51.817 300.188 56 293.46 56zm16.91-.91V16.909h22.121v7.758H319.4v6.667h10.06v7.879H319.4v8h13.758v7.879H310.37zm41.092-30.241V55.09h-8.97l.061-30.242h-7.151v-7.94h23.273v7.94h-7.213zM371.826 56c-3.516 0-7.758-2.061-10.425-4.303l4-6.303c1.576 1.151 4.485 2.969 6.485 2.969 2.303 0 3.939-1.454 3.939-3.818 0-4.667-15.151-6.667-15.151-17.697C360.674 20 366.068 16 372.613 16c4.243 0 8.97 2.424 11.515 5.757l-5.03 4.485c-1.454-1.637-4-2.849-6.182-2.849-1.757 0-3.393 1.394-3.393 3.212 0 5.818 15.212 6.001 15.212 18 0 7.212-6.182 11.395-12.909 11.395z"/></svg>